<svg width="38" height="38" viewBox="0 0 38 38" fill="none" xmlns="http://www.w3.org/2000/svg">
<path d="M26.2699 11.9226C26.277 11.9226 26.2865 11.9226 26.296 11.9226C26.5442 11.9226 26.7746 11.9998 26.9634 12.1328L26.9598 12.1304C27.0976 12.2503 27.1902 12.419 27.2128 12.609V12.6125C27.2365 12.7574 27.2496 12.9237 27.2496 13.0935C27.2496 13.1707 27.2472 13.2467 27.2413 13.3227V13.312C26.9741 16.1252 25.8151 22.9473 25.2261 26.0966C24.9767 27.4302 24.4863 27.8767 24.0113 27.9194C22.9793 28.0156 22.1956 27.2378 21.1957 26.5823C19.6306 25.5551 18.7459 24.9162 17.2271 23.9152C15.4708 22.7597 16.6096 22.122 17.6095 21.0842C17.8719 20.811 22.4212 16.6726 22.5103 16.2973C22.515 16.2748 22.5174 16.2498 22.5174 16.2237C22.5174 16.1311 22.483 16.0468 22.4271 15.9827C22.3654 15.9423 22.2882 15.9197 22.2075 15.9197C22.154 15.9197 22.103 15.9304 22.0555 15.9482L22.0578 15.947C21.9011 15.9827 19.401 17.6349 14.5576 20.9037C14.0291 21.3205 13.3618 21.5841 12.635 21.615H12.6279C11.5983 21.4903 10.6638 21.2611 9.77671 20.9345L9.86458 20.963C8.75071 20.5997 7.86602 20.4085 7.94202 19.7933C7.9824 19.4735 8.42335 19.1462 9.2649 18.8113C14.4487 16.5527 17.9055 15.0639 19.6353 14.3451C21.5436 13.3322 23.756 12.4985 26.0823 11.9582L26.2687 11.9214L26.2699 11.9226ZM18.9169 1.21729C9.05827 1.24104 1.07471 9.23885 1.07471 19.101C1.07471 28.9775 9.08083 36.9848 18.9585 36.9848C28.8361 36.9848 36.8422 28.9787 36.8422 19.101C36.8422 9.23885 28.8586 1.24104 19.0024 1.21729H19C18.9723 1.21729 18.9446 1.21729 18.9169 1.21729Z" fill="white"/>
</svg>
