<svg width="1170" height="538" viewBox="0 0 1170 538" fill="none" xmlns="http://www.w3.org/2000/svg">
<mask id="mask0_52913_125" style="mask-type:alpha" maskUnits="userSpaceOnUse" x="0" y="0" width="1170" height="538">
<rect width="1170" height="538" rx="10" fill="#EDEFEE"/>
</mask>
<g mask="url(#mask0_52913_125)">
<path opacity="0.1" d="M246.298 131.383C218.816 73.6477 93.2295 189.391 93.2295 189.391C93.2295 189.391 93.8773 31.7214 30.5787 38.7028C-31.5721 45.5576 -6.45158 194.722 -6.45158 194.722C-6.45158 194.722 -159.428 97.3149 -173.528 141.949C-188.176 188.319 -34.6479 283.99 -34.6479 283.99C-34.6479 283.99 -187.185 292.924 -198.479 363.142C-212.017 447.321 19.4477 358.345 19.4477 358.345C19.4477 358.345 -81.0252 543.412 -27.7796 572.502C25.4661 601.593 116.169 401.167 116.169 401.167C116.169 401.167 290.061 496.999 301.81 459.804C321.782 396.572 184.031 328.518 184.031 328.518C184.031 328.518 358.314 293.574 345.324 244.474C332.334 195.374 164.338 248.667 164.338 248.667C164.338 248.667 270.298 181.803 246.298 131.383Z" fill="#FFE701"/>
<path opacity="0.1" d="M1192.34 59.5387C1069.54 173.952 1181.86 378.015 1312.75 459.463C1382.14 502.638 1422.11 445.393 1372.13 375.131C1297.5 270.218 1076.63 196.186 974.948 275.159C868.428 357.891 955.054 529.132 1076.21 588.392C1133.73 616.524 1177.79 555.908 1134.58 508.596C1039.96 405.006 818.97 397.377 708.413 574.07" stroke="#1EF02C" stroke-width="68"/>
<path d="M198.702 30.2067C185.123 15.6441 158.681 61.78 158.681 61.78C158.681 61.78 144.082 14.9127 125.936 22.9206C108.12 30.7833 129.574 72.7092 129.574 72.7092C129.574 72.7092 75.0005 58.1369 75 72.7092C74.9994 87.8484 129.574 101.854 129.574 101.854C129.574 101.854 85.1073 118.809 88.3404 140.713C92.2164 166.972 152.617 118.855 152.617 118.855C152.617 118.855 140.137 183.216 158.681 186.859C177.224 190.502 185.362 122.498 185.362 122.498C185.362 122.498 246 134.641 246 122.498C246 101.854 198.702 94.5676 198.702 94.5676C198.702 94.5676 247.188 67.8518 238.723 54.4939C230.259 41.1359 185.362 72.7092 185.362 72.7092C185.362 72.7092 210.56 42.924 198.702 30.2067Z" fill="#FFE701"/>
<path d="M1009.65 268C973.389 295.444 998.094 353.46 1031.17 378.971C1048.7 392.494 1061.06 378.175 1049.5 357.89C1032.24 327.601 974.69 301.624 945.096 320.105C914.093 339.464 932.766 387.94 963.825 407.211C978.569 416.359 992.118 401.244 981.757 387.323C959.072 356.844 899.668 348.742 865 393.29" stroke="#1EF02C" stroke-width="25" stroke-linecap="round"/>
</g>
</svg>
