<svg width="442" height="446" viewBox="0 0 442 446" fill="none" xmlns="http://www.w3.org/2000/svg">
<path d="M295.383 100.756C265.922 69.248 208.553 169.069 208.553 169.069C208.553 169.069 176.879 67.6657 137.511 84.9919C98.8563 102.004 145.404 192.716 145.404 192.716C145.404 192.716 27.0012 161.187 27 192.716C26.9988 225.472 145.404 255.775 145.404 255.775C145.404 255.775 48.9286 292.459 55.9433 339.852C64.3525 396.668 195.397 292.558 195.397 292.558C195.397 292.558 168.321 431.812 208.553 439.694C248.785 447.577 266.44 300.441 266.44 300.441C266.44 300.441 398 326.715 398 300.441C398 255.775 295.383 240.01 295.383 240.01C295.383 240.01 400.577 182.207 382.213 153.305C363.848 124.403 266.44 192.716 266.44 192.716C266.44 192.716 321.111 128.272 295.383 100.756Z" fill="#FFE701"/>
<path d="M34.9696 139.244C80.4417 139.906 96.6424 78.9663 86.2516 38.5085C80.7434 17.0618 62.1965 20.7549 58.8329 43.8571C53.8105 78.3529 83.2162 134.233 117.917 137.862C154.27 141.664 169.36 91.9565 156.721 57.6594C150.722 41.3781 130.743 44.9632 130.351 62.3122C129.492 100.297 171.35 143.22 226.084 129.416" stroke="#1EF02C" stroke-width="25" stroke-linecap="round"/>
<ellipse cx="28.0712" cy="75.7987" rx="28.0712" ry="75.7987" transform="matrix(0.964937 0.262482 -0.514927 0.857234 335.287 300)" fill="#F03167"/>
<ellipse cx="22.7872" cy="61.7897" rx="22.7872" ry="61.7897" transform="matrix(0.964937 0.262482 -0.514927 0.857234 372.178 328.101)" fill="#F03167"/>
<ellipse cx="22.7872" cy="42.7775" rx="22.7872" ry="42.7775" transform="matrix(0.964937 0.262482 -0.514927 0.857234 397.967 359.558)" fill="#F03167"/>
<path d="M21.9004 440V425.86H31.7804V427.8H24.0204V431.58H27.1804C27.8737 431.58 28.5337 431.633 29.1604 431.74C29.8004 431.847 30.3671 432.04 30.8604 432.32C31.3537 432.6 31.7404 433 32.0204 433.52C32.3137 434.04 32.4604 434.713 32.4604 435.54C32.4604 436.393 32.3137 437.107 32.0204 437.68C31.7404 438.253 31.3471 438.713 30.8404 439.06C30.3471 439.393 29.7671 439.633 29.1004 439.78C28.4337 439.927 27.7204 440 26.9604 440H21.9004ZM24.0204 438.06H26.8404C27.2671 438.06 27.6871 438.033 28.1004 437.98C28.5271 437.913 28.9071 437.8 29.2404 437.64C29.5737 437.48 29.8337 437.247 30.0204 436.94C30.2204 436.62 30.3204 436.2 30.3204 435.68C30.3204 435.173 30.2271 434.773 30.0404 434.48C29.8671 434.173 29.6137 433.953 29.2804 433.82C28.9604 433.673 28.6004 433.58 28.2004 433.54C27.8004 433.487 27.3804 433.46 26.9404 433.46H24.0204V438.06Z" fill="white"/>
<path d="M34.6426 444.62V442.58C35.2559 442.58 35.7492 442.507 36.1226 442.36C36.5092 442.213 36.8292 441.973 37.0826 441.64C37.3359 441.32 37.5826 440.9 37.8226 440.38L33.2626 429.46H35.6826L38.9826 438L41.6426 429.46H43.9426L41.0426 438.02C40.8959 438.473 40.7226 438.967 40.5226 439.5C40.3359 440.033 40.1226 440.567 39.8826 441.1C39.6559 441.633 39.3959 442.127 39.1026 442.58C38.8092 443.033 38.4826 443.4 38.1226 443.68C37.8292 443.92 37.5359 444.107 37.2426 444.24C36.9492 444.387 36.6026 444.487 36.2026 444.54C35.8026 444.593 35.2826 444.62 34.6426 444.62Z" fill="white"/>
<path d="M43.9759 443.14V438.18C44.3492 438.18 44.6492 438.08 44.8759 437.88C45.1025 437.68 45.2825 437.42 45.4159 437.1C45.5492 436.78 45.6492 436.427 45.7159 436.04C45.7959 435.64 45.8625 435.253 45.9159 434.88C45.9825 434.28 46.0225 433.673 46.0359 433.06C46.0625 432.433 46.0759 431.913 46.0759 431.5C46.0892 431.167 46.0959 430.833 46.0959 430.5C46.0959 430.153 46.0959 429.807 46.0959 429.46H53.9159V438.18H55.2759V443.14H53.2559V440H45.9959V443.14H43.9759ZM47.0559 438.18H51.8359V431.3H47.9959C47.9959 431.82 47.9892 432.393 47.9759 433.02C47.9625 433.647 47.9359 434.24 47.8959 434.8C47.8692 435.12 47.8359 435.48 47.7959 435.88C47.7559 436.28 47.6825 436.68 47.5759 437.08C47.4692 437.48 47.2959 437.847 47.0559 438.18Z" fill="white"/>
<path d="M56.8066 444.62V442.58C57.42 442.58 57.9133 442.507 58.2866 442.36C58.6733 442.213 58.9933 441.973 59.2466 441.64C59.5 441.32 59.7466 440.9 59.9866 440.38L55.4266 429.46H57.8466L61.1466 438L63.8066 429.46H66.1066L63.2066 438.02C63.06 438.473 62.8866 438.967 62.6866 439.5C62.5 440.033 62.2866 440.567 62.0466 441.1C61.82 441.633 61.56 442.127 61.2666 442.58C60.9733 443.033 60.6466 443.4 60.2866 443.68C59.9933 443.92 59.7 444.107 59.4066 444.24C59.1133 444.387 58.7666 444.487 58.3666 444.54C57.9666 444.593 57.4466 444.62 56.8066 444.62Z" fill="white"/>
<path d="M196.488 251.84V237.46H198.448L198.548 238.98C198.922 238.42 199.415 238.007 200.028 237.74C200.642 237.46 201.295 237.32 201.988 237.32C203.028 237.32 203.888 237.56 204.568 238.04C205.248 238.52 205.755 239.167 206.088 239.98C206.422 240.793 206.588 241.713 206.588 242.74C206.588 243.767 206.415 244.687 206.068 245.5C205.735 246.313 205.215 246.953 204.508 247.42C203.815 247.887 202.928 248.12 201.848 248.12C201.328 248.12 200.862 248.067 200.448 247.96C200.035 247.853 199.675 247.7 199.368 247.5C199.062 247.287 198.788 247.06 198.548 246.82V251.84H196.488ZM201.608 246.28C202.328 246.28 202.902 246.12 203.328 245.8C203.755 245.467 204.062 245.033 204.248 244.5C204.435 243.967 204.528 243.387 204.528 242.76C204.528 242.107 204.428 241.513 204.228 240.98C204.042 240.433 203.728 240 203.288 239.68C202.862 239.347 202.288 239.18 201.568 239.18C200.915 239.18 200.362 239.347 199.908 239.68C199.455 240 199.108 240.433 198.868 240.98C198.642 241.527 198.528 242.12 198.528 242.76C198.528 243.413 198.635 244.013 198.848 244.56C199.075 245.093 199.415 245.513 199.868 245.82C200.335 246.127 200.915 246.28 201.608 246.28Z" fill="#0141D3"/>
<path d="M211.457 248.12C210.99 248.12 210.537 248.06 210.097 247.94C209.657 247.807 209.263 247.613 208.917 247.36C208.57 247.093 208.29 246.767 208.077 246.38C207.877 245.98 207.777 245.513 207.777 244.98C207.777 244.34 207.897 243.813 208.137 243.4C208.39 242.973 208.723 242.647 209.137 242.42C209.55 242.18 210.023 242.013 210.557 241.92C211.103 241.813 211.67 241.76 212.257 241.76H214.837C214.837 241.24 214.757 240.787 214.597 240.4C214.437 240 214.183 239.693 213.837 239.48C213.503 239.253 213.057 239.14 212.497 239.14C212.163 239.14 211.843 239.18 211.537 239.26C211.243 239.327 210.99 239.44 210.777 239.6C210.563 239.76 210.417 239.973 210.337 240.24H208.177C208.257 239.733 208.437 239.3 208.717 238.94C208.997 238.567 209.343 238.26 209.757 238.02C210.17 237.78 210.61 237.607 211.077 237.5C211.557 237.38 212.043 237.32 212.537 237.32C213.55 237.32 214.37 237.52 214.997 237.92C215.637 238.32 216.103 238.893 216.397 239.64C216.69 240.387 216.837 241.273 216.837 242.3V248H215.057L214.977 246.7C214.67 247.087 214.317 247.387 213.917 247.6C213.53 247.8 213.123 247.933 212.697 248C212.27 248.08 211.857 248.12 211.457 248.12ZM211.817 246.38C212.43 246.38 212.963 246.28 213.417 246.08C213.87 245.867 214.217 245.567 214.457 245.18C214.71 244.78 214.837 244.307 214.837 243.76V243.34H212.957C212.57 243.34 212.19 243.353 211.817 243.38C211.443 243.393 211.103 243.447 210.797 243.54C210.503 243.62 210.27 243.76 210.097 243.96C209.923 244.16 209.837 244.447 209.837 244.82C209.837 245.18 209.93 245.473 210.117 245.7C210.303 245.927 210.55 246.1 210.857 246.22C211.163 246.327 211.483 246.38 211.817 246.38Z" fill="#0141D3"/>
<path d="M217.929 251.14V246.18C218.302 246.18 218.602 246.08 218.829 245.88C219.055 245.68 219.235 245.42 219.369 245.1C219.502 244.78 219.602 244.427 219.669 244.04C219.749 243.64 219.815 243.253 219.869 242.88C219.935 242.28 219.975 241.673 219.989 241.06C220.015 240.433 220.029 239.913 220.029 239.5C220.042 239.167 220.049 238.833 220.049 238.5C220.049 238.153 220.049 237.807 220.049 237.46H227.869V246.18H229.229V251.14H227.209V248H219.949V251.14H217.929ZM221.009 246.18H225.789V239.3H221.949C221.949 239.82 221.942 240.393 221.929 241.02C221.915 241.647 221.889 242.24 221.849 242.8C221.822 243.12 221.789 243.48 221.749 243.88C221.709 244.28 221.635 244.68 221.529 245.08C221.422 245.48 221.249 245.847 221.009 246.18Z" fill="#0141D3"/>
<path d="M233.679 248.12C233.213 248.12 232.759 248.06 232.319 247.94C231.879 247.807 231.486 247.613 231.139 247.36C230.793 247.093 230.513 246.767 230.299 246.38C230.099 245.98 229.999 245.513 229.999 244.98C229.999 244.34 230.119 243.813 230.359 243.4C230.613 242.973 230.946 242.647 231.359 242.42C231.773 242.18 232.246 242.013 232.779 241.92C233.326 241.813 233.893 241.76 234.479 241.76H237.059C237.059 241.24 236.979 240.787 236.819 240.4C236.659 240 236.406 239.693 236.059 239.48C235.726 239.253 235.279 239.14 234.719 239.14C234.386 239.14 234.066 239.18 233.759 239.26C233.466 239.327 233.213 239.44 232.999 239.6C232.786 239.76 232.639 239.973 232.559 240.24H230.399C230.479 239.733 230.659 239.3 230.939 238.94C231.219 238.567 231.566 238.26 231.979 238.02C232.393 237.78 232.833 237.607 233.299 237.5C233.779 237.38 234.266 237.32 234.759 237.32C235.773 237.32 236.593 237.52 237.219 237.92C237.859 238.32 238.326 238.893 238.619 239.64C238.913 240.387 239.059 241.273 239.059 242.3V248H237.279L237.199 246.7C236.893 247.087 236.539 247.387 236.139 247.6C235.753 247.8 235.346 247.933 234.919 248C234.493 248.08 234.079 248.12 233.679 248.12ZM234.039 246.38C234.653 246.38 235.186 246.28 235.639 246.08C236.093 245.867 236.439 245.567 236.679 245.18C236.933 244.78 237.059 244.307 237.059 243.76V243.34H235.179C234.793 243.34 234.413 243.353 234.039 243.38C233.666 243.393 233.326 243.447 233.019 243.54C232.726 243.62 232.493 243.76 232.319 243.96C232.146 244.16 232.059 244.447 232.059 244.82C232.059 245.18 232.153 245.473 232.339 245.7C232.526 245.927 232.773 246.1 233.079 246.22C233.386 246.327 233.706 246.38 234.039 246.38Z" fill="#0141D3"/>
<path d="M297.896 47.1201C296.789 47.1201 295.863 46.8934 295.116 46.4401C294.383 45.9867 293.829 45.3601 293.456 44.5601C293.096 43.7467 292.916 42.8134 292.916 41.7601C292.916 40.7201 293.103 39.7934 293.476 38.9801C293.863 38.1534 294.436 37.5067 295.196 37.0401C295.969 36.5601 296.923 36.3201 298.056 36.3201C298.829 36.3201 299.516 36.4534 300.116 36.7201C300.716 36.9734 301.203 37.3534 301.576 37.8601C301.963 38.3534 302.216 38.9734 302.336 39.7201H300.276C300.103 39.1734 299.809 38.7801 299.396 38.5401C298.996 38.3001 298.523 38.1801 297.976 38.1801C297.243 38.1801 296.656 38.3534 296.216 38.7001C295.776 39.0467 295.456 39.4934 295.256 40.0401C295.069 40.5867 294.976 41.1601 294.976 41.7601C294.976 42.3867 295.076 42.9667 295.276 43.5001C295.489 44.0334 295.809 44.4667 296.236 44.8001C296.676 45.1201 297.249 45.2801 297.956 45.2801C298.489 45.2801 298.983 45.1667 299.436 44.9401C299.889 44.7001 300.183 44.3001 300.316 43.7401H302.436C302.316 44.5134 302.036 45.1534 301.596 45.6601C301.156 46.1534 300.609 46.5201 299.956 46.7601C299.316 47.0001 298.629 47.1201 297.896 47.1201Z" fill="white"/>
<path d="M308.629 47.1201C307.536 47.1201 306.609 46.9001 305.849 46.4601C305.089 46.0067 304.509 45.3734 304.109 44.5601C303.723 43.7467 303.529 42.8067 303.529 41.7401C303.529 40.6601 303.723 39.7201 304.109 38.9201C304.509 38.1067 305.089 37.4734 305.849 37.0201C306.609 36.5534 307.543 36.3201 308.649 36.3201C309.743 36.3201 310.669 36.5534 311.429 37.0201C312.189 37.4734 312.763 38.1067 313.149 38.9201C313.536 39.7334 313.729 40.6801 313.729 41.7601C313.729 42.8134 313.529 43.7467 313.129 44.5601C312.743 45.3734 312.169 46.0067 311.409 46.4601C310.663 46.9001 309.736 47.1201 308.629 47.1201ZM308.629 45.2801C309.349 45.2801 309.929 45.1201 310.369 44.8001C310.823 44.4801 311.156 44.0534 311.369 43.5201C311.583 42.9867 311.689 42.4001 311.689 41.7601C311.689 41.1201 311.583 40.5334 311.369 40.0001C311.156 39.4534 310.823 39.0201 310.369 38.7001C309.929 38.3667 309.349 38.2001 308.629 38.2001C307.923 38.2001 307.343 38.3667 306.889 38.7001C306.436 39.0201 306.103 39.4467 305.889 39.9801C305.689 40.5134 305.589 41.1067 305.589 41.7601C305.589 42.4001 305.689 42.9867 305.889 43.5201C306.103 44.0534 306.436 44.4801 306.889 44.8001C307.343 45.1201 307.923 45.2801 308.629 45.2801Z" fill="white"/>
<path d="M317.823 47.0001V38.3001H314.263V36.4601H323.443V38.3001H319.883V47.0001H317.823Z" fill="white"/>
<path d="M324.375 50.8401V36.4601H326.335L326.435 37.9801C326.808 37.4201 327.301 37.0067 327.915 36.7401C328.528 36.4601 329.181 36.3201 329.875 36.3201C330.915 36.3201 331.775 36.5601 332.455 37.0401C333.135 37.5201 333.641 38.1667 333.975 38.9801C334.308 39.7934 334.475 40.7134 334.475 41.7401C334.475 42.7667 334.301 43.6867 333.955 44.5001C333.621 45.3134 333.101 45.9534 332.395 46.4201C331.701 46.8867 330.815 47.1201 329.735 47.1201C329.215 47.1201 328.748 47.0667 328.335 46.9601C327.921 46.8534 327.561 46.7001 327.255 46.5001C326.948 46.2867 326.675 46.0601 326.435 45.8201V50.8401H324.375ZM329.495 45.2801C330.215 45.2801 330.788 45.1201 331.215 44.8001C331.641 44.4667 331.948 44.0334 332.135 43.5001C332.321 42.9667 332.415 42.3867 332.415 41.7601C332.415 41.1067 332.315 40.5134 332.115 39.9801C331.928 39.4334 331.615 39.0001 331.175 38.6801C330.748 38.3467 330.175 38.1801 329.455 38.1801C328.801 38.1801 328.248 38.3467 327.795 38.6801C327.341 39.0001 326.995 39.4334 326.755 39.9801C326.528 40.5267 326.415 41.1201 326.415 41.7601C326.415 42.4134 326.521 43.0134 326.735 43.5601C326.961 44.0934 327.301 44.5134 327.755 44.8201C328.221 45.1267 328.801 45.2801 329.495 45.2801Z" fill="white"/>
<path d="M336.423 51.6201V49.5801C337.036 49.5801 337.53 49.5067 337.903 49.3601C338.29 49.2134 338.61 48.9734 338.863 48.6401C339.116 48.3201 339.363 47.9001 339.603 47.3801L335.043 36.4601H337.463L340.763 45.0001L343.423 36.4601H345.723L342.823 45.0201C342.676 45.4734 342.503 45.9667 342.303 46.5001C342.116 47.0334 341.903 47.5667 341.663 48.1001C341.436 48.6334 341.176 49.1267 340.883 49.5801C340.59 50.0334 340.263 50.4001 339.903 50.6801C339.61 50.9201 339.316 51.1067 339.023 51.2401C338.73 51.3867 338.383 51.4867 337.983 51.5401C337.583 51.5934 337.063 51.6201 336.423 51.6201Z" fill="white"/>
<path d="M345.756 50.1401V45.1801C346.13 45.1801 346.43 45.0801 346.656 44.8801C346.883 44.6801 347.063 44.4201 347.196 44.1001C347.33 43.7801 347.43 43.4267 347.496 43.0401C347.576 42.6401 347.643 42.2534 347.696 41.8801C347.763 41.2801 347.803 40.6734 347.816 40.0601C347.843 39.4334 347.856 38.9134 347.856 38.5001C347.87 38.1667 347.876 37.8334 347.876 37.5001C347.876 37.1534 347.876 36.8067 347.876 36.4601H355.696V45.1801H357.056V50.1401H355.036V47.0001H347.776V50.1401H345.756ZM348.836 45.1801H353.616V38.3001H349.776C349.776 38.8201 349.77 39.3934 349.756 40.0201C349.743 40.6467 349.716 41.2401 349.676 41.8001C349.65 42.1201 349.616 42.4801 349.576 42.8801C349.536 43.2801 349.463 43.6801 349.356 44.0801C349.25 44.4801 349.076 44.8467 348.836 45.1801Z" fill="white"/>
<path d="M358.187 47.0001V36.4601H360.247V40.9001H365.107V36.4601H367.167V47.0001H365.107V42.7201H360.247V47.0001H358.187Z" fill="white"/>
<path d="M369.191 47.0001V36.4601H371.251V43.9201C371.344 43.7601 371.464 43.5867 371.611 43.4001C371.758 43.2001 371.871 43.0401 371.951 42.9201L376.771 36.4601H378.691V47.0001H376.631V39.5801C376.524 39.7534 376.411 39.9267 376.291 40.1001C376.171 40.2601 376.058 40.4067 375.951 40.5401L371.131 47.0001H369.191Z" fill="white"/>
<path d="M386.803 47.0001V43.1201C386.296 43.2001 385.829 43.2534 385.403 43.2801C384.989 43.3067 384.616 43.3201 384.283 43.3201C383.283 43.3201 382.483 43.1667 381.883 42.8601C381.296 42.5401 380.876 42.0601 380.623 41.4201C380.369 40.7801 380.243 39.9801 380.243 39.0201V36.4601H382.303V38.9001C382.303 39.4467 382.356 39.9134 382.463 40.3001C382.569 40.6734 382.783 40.9667 383.103 41.1801C383.423 41.3801 383.909 41.4801 384.563 41.4801C384.909 41.4801 385.283 41.4601 385.683 41.4201C386.083 41.3801 386.456 41.3267 386.803 41.2601V36.4601H388.883V47.0001H386.803Z" fill="white"/>
<path d="M395.546 47.1201C394.439 47.1201 393.513 46.8934 392.766 46.4401C392.019 45.9867 391.453 45.3601 391.066 44.5601C390.693 43.7467 390.506 42.8134 390.506 41.7601C390.506 40.6934 390.699 39.7534 391.086 38.9401C391.486 38.1267 392.059 37.4867 392.806 37.0201C393.566 36.5534 394.479 36.3201 395.546 36.3201C396.333 36.3201 397.019 36.4667 397.606 36.7601C398.206 37.0401 398.706 37.4334 399.106 37.9401C399.519 38.4334 399.819 38.9934 400.006 39.6201C400.193 40.2467 400.279 40.9067 400.266 41.6001C400.253 41.7467 400.239 41.8867 400.226 42.0201C400.226 42.1534 400.219 42.2934 400.206 42.4401H392.586C392.626 42.9734 392.759 43.4601 392.986 43.9001C393.226 44.3401 393.559 44.6934 393.986 44.9601C394.413 45.2134 394.939 45.3401 395.566 45.3401C395.913 45.3401 396.246 45.3001 396.566 45.2201C396.899 45.1267 397.193 44.9867 397.446 44.8001C397.713 44.6001 397.899 44.3467 398.006 44.0401H400.086C399.913 44.7467 399.599 45.3334 399.146 45.8001C398.706 46.2534 398.166 46.5867 397.526 46.8001C396.899 47.0134 396.239 47.1201 395.546 47.1201ZM392.626 40.8001H398.226C398.213 40.2801 398.093 39.8201 397.866 39.4201C397.639 39.0067 397.326 38.6867 396.926 38.4601C396.526 38.2201 396.046 38.1001 395.486 38.1001C394.873 38.1001 394.359 38.2267 393.946 38.4801C393.546 38.7334 393.233 39.0667 393.006 39.4801C392.793 39.8801 392.666 40.3201 392.626 40.8001Z" fill="white"/>
<path d="M406.47 47.1201C405.364 47.1201 404.437 46.8934 403.69 46.4401C402.957 45.9867 402.404 45.3601 402.03 44.5601C401.67 43.7467 401.49 42.8134 401.49 41.7601C401.49 40.7201 401.677 39.7934 402.05 38.9801C402.437 38.1534 403.01 37.5067 403.77 37.0401C404.544 36.5601 405.497 36.3201 406.63 36.3201C407.404 36.3201 408.09 36.4534 408.69 36.7201C409.29 36.9734 409.777 37.3534 410.15 37.8601C410.537 38.3534 410.79 38.9734 410.91 39.7201H408.85C408.677 39.1734 408.384 38.7801 407.97 38.5401C407.57 38.3001 407.097 38.1801 406.55 38.1801C405.817 38.1801 405.23 38.3534 404.79 38.7001C404.35 39.0467 404.03 39.4934 403.83 40.0401C403.644 40.5867 403.55 41.1601 403.55 41.7601C403.55 42.3867 403.65 42.9667 403.85 43.5001C404.064 44.0334 404.384 44.4667 404.81 44.8001C405.25 45.1201 405.824 45.2801 406.53 45.2801C407.064 45.2801 407.557 45.1667 408.01 44.9401C408.464 44.7001 408.757 44.3001 408.89 43.7401H411.01C410.89 44.5134 410.61 45.1534 410.17 45.6601C409.73 46.1534 409.184 46.5201 408.53 46.7601C407.89 47.0001 407.204 47.1201 406.47 47.1201Z" fill="white"/>
<path d="M414.984 47.0001V38.3001H411.424V36.4601H420.604V38.3001H417.044V47.0001H414.984Z" fill="white"/>
<path d="M421.535 47.0001V36.4601H425.975C426.428 36.4601 426.881 36.4934 427.335 36.5601C427.801 36.6134 428.221 36.7334 428.595 36.9201C428.981 37.1067 429.288 37.3801 429.515 37.7401C429.755 38.0867 429.875 38.5467 429.875 39.1201C429.875 39.4667 429.821 39.7801 429.715 40.0601C429.608 40.3401 429.455 40.5867 429.255 40.8001C429.068 41.0001 428.828 41.1734 428.535 41.3201C429.201 41.4934 429.681 41.8067 429.975 42.2601C430.281 42.7001 430.435 43.2267 430.435 43.8401C430.435 44.4001 430.328 44.8801 430.115 45.2801C429.901 45.6801 429.615 46.0067 429.255 46.2601C428.895 46.5134 428.488 46.7001 428.035 46.8201C427.581 46.9401 427.115 47.0001 426.635 47.0001H421.535ZM423.635 45.2001H426.275C426.648 45.2001 426.988 45.1667 427.295 45.1001C427.615 45.0201 427.868 44.8801 428.055 44.6801C428.255 44.4801 428.355 44.2067 428.355 43.8601C428.355 43.5001 428.275 43.2267 428.115 43.0401C427.955 42.8401 427.748 42.7001 427.495 42.6201C427.241 42.5401 426.968 42.4934 426.675 42.4801C426.381 42.4534 426.095 42.4401 425.815 42.4401H423.635V45.2001ZM423.635 40.8801H425.195C425.435 40.8801 425.708 40.8667 426.015 40.8401C426.321 40.8001 426.615 40.7334 426.895 40.6401C427.188 40.5467 427.421 40.4134 427.595 40.2401C427.781 40.0534 427.875 39.8001 427.875 39.4801C427.875 39.0534 427.755 38.7601 427.515 38.6001C427.288 38.4267 427.015 38.3267 426.695 38.3001C426.375 38.2601 426.061 38.2401 425.755 38.2401H423.635V40.8801Z" fill="white"/>
<path d="M432.489 51.6201V49.5801C433.103 49.5801 433.596 49.5067 433.969 49.3601C434.356 49.2134 434.676 48.9734 434.929 48.6401C435.183 48.3201 435.429 47.9001 435.669 47.3801L431.109 36.4601H433.529L436.829 45.0001L439.489 36.4601H441.789L438.889 45.0201C438.743 45.4734 438.569 45.9667 438.369 46.5001C438.183 47.0334 437.969 47.5667 437.729 48.1001C437.503 48.6334 437.243 49.1267 436.949 49.5801C436.656 50.0334 436.329 50.4001 435.969 50.6801C435.676 50.9201 435.383 51.1067 435.089 51.2401C434.796 51.3867 434.449 51.4867 434.049 51.5401C433.649 51.5934 433.129 51.6201 432.489 51.6201Z" fill="white"/>
</svg>
